<?xml version="1.0" encoding="UTF-8" standalone="no"?>
<svg
   width="512"
   height="512"
   version="1.1"
   id="svg12"
   sodipodi:docname="placeholder.svg"
   inkscape:version="1.4.2 (ebf0e940d0, 2025-05-08)"
   xmlns:inkscape="http://www.inkscape.org/namespaces/inkscape"
   xmlns:sodipodi="http://sodipodi.sourceforge.net/DTD/sodipodi-0.dtd"
   xmlns="http://www.w3.org/2000/svg"
   xmlns:svg="http://www.w3.org/2000/svg">
  <sodipodi:namedview
     id="namedview12"
     pagecolor="#ffffff"
     bordercolor="#000000"
     borderopacity="0.25"
     inkscape:showpageshadow="2"
     inkscape:pageopacity="0.0"
     inkscape:pagecheckerboard="0"
     inkscape:deskcolor="#d1d1d1"
     inkscape:zoom="0.80861528"
     inkscape:cx="131.70664"
     inkscape:cy="311.02554"
     inkscape:window-width="2560"
     inkscape:window-height="1375"
     inkscape:window-x="0"
     inkscape:window-y="0"
     inkscape:window-maximized="1"
     inkscape:current-layer="g12" />
  <defs
     id="defs2">
    <linearGradient
       id="c"
       x2="0"
       y1="-521.79999"
       y2="-525.79999"
       gradientUnits="userSpaceOnUse"
       gradientTransform="matrix(9.4814815,0,0,9.4814815,-3295.6493,4272.9703)">
      <stop
         stop-color="#2a2c2f"
         offset="0"
         id="stop1" />
      <stop
         stop-color="#424649"
         offset="1"
         id="stop2" />
    </linearGradient>
  </defs>
  <g
     transform="matrix(1.35,0,0,1.35,-524.56951,-680.12998)"
     stroke-width="0.74074"
     id="g12">
    <rect
       x="388.57001"
       y="503.79999"
       width="379.25925"
       height="379.25925"
       rx="189.62962"
       fill="#383b3e"
       id="rect2"
       style="stroke-width:7.02332" />
    <rect
       x="511.82925"
       y="627.05927"
       width="132.74074"
       height="132.74074"
       rx="66.370369"
       fill="#f57953"
       id="rect3"
       style="fill:#f45f31;fill-opacity:1;stroke-width:7.02332" />
    <rect
       transform="scale(1,-1)"
       x="559.23669"
       y="-712.39258"
       width="37.925926"
       height="37.925926"
       rx="18.962963"
       fill="url(#c)"
       id="rect4"
       style="fill:url(#c);stroke-width:7.02332" />
    <path
       d="m 578.19957,636.54084 c -31.51645,0 -56.88889,25.37245 -56.88889,56.88889 0,31.51645 25.37244,56.88889 56.88889,56.88889 31.51644,0 56.88889,-25.37244 56.88889,-56.88889 0,-31.51644 -25.37245,-56.88889 -56.88889,-56.88889 m 0,9.48149 c 26.2637,0 47.4074,21.1437 47.4074,47.4074 0,26.26371 -21.1437,47.40741 -47.4074,47.40741 -26.26371,0 -47.40741,-21.1437 -47.40741,-47.40741 0,-26.2637 21.1437,-47.4074 47.40741,-47.4074"
       fill="#fff"
       fill-opacity=".275"
       id="path4"
       style="fill:#ffffff;fill-opacity:0.19;stroke-width:7.02332" />
    <g
       fill="#4c5053"
       id="g11"
       transform="matrix(9.4814815,0,0,9.4814815,-3295.6493,-4272.9703)">
      <path
         id="path5"
         d="m 415.07934,505.96291 -3.46499,9.36776 c 0.495,0.179 0.98199,0.3964 1.45399,0.6684 0.472,0.273 0.90343,0.58648 1.30643,0.92448 l 0.004,-0.004 c 0.19258,0.16044 0.38019,0.33101 0.56134,0.51216 0.18032,0.18031 0.34947,0.3668 0.50926,0.55844 l -0.006,0.004 c 0.14485,0.17218 0.28228,0.35187 0.41667,0.5353 0.0255,0.0353 0.0546,0.0686 0.0796,0.10416 0.15156,0.21325 0.29488,0.43553 0.42824,0.66696 0.273,0.472 0.48941,0.95999 0.66841,1.45399 l 9.36776,-3.46499 c -0.37178,-1.0154 -0.81389,-2.01953 -1.37442,-2.989 l -10e-4,-10e-4 c -0.28376,-0.49187 -0.6085,-0.94265 -0.93171,-1.39467 l 0.0174,-0.013 c -0.11186,-0.15917 -0.22647,-0.31612 -0.34288,-0.4731 -0.2087,-0.27443 -0.42301,-0.54351 -0.64236,-0.80584 l -0.0275,0.0231 c -0.35397,-0.43039 -0.68842,-0.87216 -1.09086,-1.2746 l -10e-4,-0.001 c -0.40351,-0.40351 -0.84371,-0.74093 -1.2746,-1.0952 l 0.0217,-0.026 c -0.24066,-0.20123 -0.48706,-0.39803 -0.73784,-0.59028 -0.17856,-0.13344 -0.35816,-0.26307 -0.53964,-0.39062 l -0.013,0.0188 c -0.45383,-0.32455 -0.90355,-0.65352 -1.39757,-0.93894 l 0.001,0.003 c -0.971,-0.56 -1.97345,-1.00031 -2.99045,-1.37731 z"
         sodipodi:nodetypes="ccccccccccccccccccccsscccccccc"
         style="opacity:0.35;fill:#808080;fill-opacity:1" />
      <path
         id="path6"
         d="m 400.11117,526.84543 -9.36777,3.46499 c 0.377,1.017 0.81732,2.018 1.37732,2.989 h -0.003 c 0.48832,0.84519 1.04068,1.6256 1.6334,2.36111 0.0882,0.10949 0.17773,0.21798 0.26765,0.32552 l 0.0116,-0.0101 c 0.35209,0.42782 0.70899,0.85366 1.10966,1.25434 h 10e-4 c 0.39945,0.39944 0.82444,0.75366 1.25145,1.10532 l -0.0101,0.013 c 0.83,0.694 1.71563,1.34104 2.68663,1.90104 0.97,0.56 1.97301,1.00387 2.98901,1.37587 l 3.46499,-9.36921 c -0.494,-0.179 -0.982,-0.39396 -1.454,-0.66696 -0.21851,-0.12592 -0.42711,-0.2614 -0.62934,-0.40364 l 0.003,-0.004 c -0.14396,-0.10054 -0.28256,-0.21098 -0.42246,-0.31974 -0.0772,-0.0611 -0.15916,-0.11789 -0.23437,-0.18084 -0.1971,-0.16359 -0.39063,-0.3371 -0.57581,-0.52228 -0.18933,-0.18933 -0.36562,-0.38564 -0.53241,-0.58739 -0.0302,-0.0362 -0.057,-0.0761 -0.0868,-0.11284 -0.13964,-0.17438 -0.2758,-0.34998 -0.4022,-0.53097 l -0.006,0.003 c -0.1426,-0.20262 -0.277,-0.41182 -0.40365,-0.63079 -0.272,-0.472 -0.4894,-0.95899 -0.6684,-1.45399 z"
         sodipodi:nodetypes="cccccccccccccccccccscccccc"
         style="opacity:0.35;fill:#808080;fill-opacity:1" />
      <g
         fill-opacity="0.198"
         id="g10" />
    </g>
  </g>
</svg>
